# File created by Blade
# Date/Time:  Wed Apr 08 14:10:35 2015
# Frame Rate: 120.000 fps
#------------------------------------------------------
:FULLY-SPECIFIED
:DEGREES
785
root 1.805949 32.990490 13.745346 10.276249 0.996051 -3.230804
Spine -12.411377 -6.296865 2.218062
Head 8.046259 -3.221793 -0.958219
LeftShoulder -23.089087 41.342270 19.363901
LeftArm 58.549873 -59.376517 -60.883800
LeftForeArm 11.379808 -0.000000 -2.529153
LeftHand 2.007900 -0.000000 4.509995
LeftHandThumb1 -26.253704 0.000000 33.147579
RightShoulder -7.867626 3.413466 -31.903871
RightArm 11.823588 14.973100 38.684980
RightForeArm -15.922322 -0.000000 0.965635
RightHand 0.492219 -0.000000 1.585476
RightHandThumb1 -24.326973 -0.000000 -32.862282
LeftUpLeg -6.490125 -6.449326 2.460454
LeftLeg -1.057747 -0.000000 0.000000
LeftFoot -7.524901 8.241218 -16.828900
LeftToeBase -5.014754 -0.000000 0.000000
RightUpLeg -5.715727 6.999960 4.424395
RightLeg -2.181058 -0.000000 0.000000
RightFoot -5.625610 -15.697268 6.592783
RightToeBase -2.888732 -0.000000 0.000000
786
root 1.781262 32.989154 13.752911 10.347033 0.855098 -3.152979
Spine -12.511392 -6.256800 2.112743
Head 8.079850 -3.146750 -0.962318
LeftShoulder -23.147982 41.348860 19.309409
LeftArm 58.552281 -59.400017 -60.872303
LeftForeArm 11.362800 -0.000000 -2.471251
LeftHand 1.915507 -0.000000 4.567814
LeftHandThumb1 -26.253704 0.000000 33.147579
RightShoulder -7.833778 3.421824 -31.885673
RightArm 11.882011 14.959716 38.725751
RightForeArm -15.834897 -0.000000 0.960125
RightHand 0.828773 0.000000 1.479318
RightHandThumb1 -24.326973 -0.000000 -32.862282
LeftUpLeg -6.513799 -6.347684 2.411630
LeftLeg -1.096914 -0.000000 0.000000
LeftFoot -7.508274 8.262412 -16.880298
LeftToeBase -5.040356 -0.000000 0.000000
RightUpLeg -5.727347 7.081328 4.359182
RightLeg -2.272350 -0.000000 0.000000
RightFoot -5.603819 -15.617031 6.600843
RightToeBase -2.908406 -0.000000 0.000000
787
root 1.757791 32.987601 13.760804 10.400451 0.732906 -3.070867
Spine -12.587252 -6.221624 1.999340
Head 8.106042 -3.112192 -0.944767
LeftShoulder -23.235920 41.388353 19.217992
LeftArm 58.643304 -59.418550 -60.890473
LeftForeArm 11.321062 -0.000000 -2.449708
LeftHand 1.942608 -0.000000 4.641839
LeftHandThumb1 -26.253704 0.000000 33.147579
RightShoulder -7.837638 3.406322 -31.890125
RightArm 11.960473 14.993813 38.823383
RightForeArm -15.908908 0.000000 1.012555
RightHand 0.587376 -0.000000 1.706468
RightHandThumb1 -24.326973 -0.000000 -32.862282
LeftUpLeg -6.533807 -6.258010 2.357818
LeftLeg -1.110305 -0.000000 0.000000
LeftFoot -7.495443 8.277070 -16.893385
LeftToeBase -5.100068 -0.000000 0.000000
RightUpLeg -5.721907 7.163115 4.289324
RightLeg -2.360803 -0.000000 0.000000
RightFoot -5.599036 -15.548545 6.628153
RightToeBase -2.899432 -0.000000 0.000000
788
root 1.736022 32.986631 13.768767 10.439336 0.634435 -2.984402
Spine -12.653257 -6.212109 1.905402
Head 8.146845 -3.062204 -0.996060
LeftShoulder -23.275357 41.379139 19.152713
LeftArm 58.613861 -59.442512 -60.850463
LeftForeArm 11.361252 0.000000 -2.378838
LeftHand 1.855909 -0.000000 4.803229
LeftHandThumb1 -26.253704 0.000000 33.147579
RightShoulder -7.820443 3.412669 -31.869400
RightArm 12.019832 15.000078 38.837167
RightForeArm -15.952617 -0.000000 1.070816
RightHand 0.408279 -0.000000 1.647234
RightHandThumb1 -24.326973 -0.000000 -32.862282
LeftUpLeg -6.550886 -6.254345 2.305191
LeftLeg -1.108417 -0.000000 0.000000
LeftFoot -7.505582 8.355115 -16.944694
LeftToeBase -5.106066 -0.000000 0.000000
RightUpLeg -5.712020 7.198270 4.217793
RightLeg -2.424246 -0.000000 0.000000
RightFoot -5.580520 -15.447520 6.623722
RightToeBase -2.996214 -0.000000 0.000000
789
root 1.714576 32.985468 13.779765 10.458818 0.543415 -2.880112
Spine -12.706968 -6.237351 1.790523
Head 8.193084 -2.963230 -1.022410
LeftShoulder -23.324776 41.366344 19.119265
LeftArm 58.584611 -59.462589 -60.868370
LeftForeArm 11.453847 -0.000000 -2.279895
LeftHand 1.836002 -0.000000 4.867349
LeftHandThumb1 -26.253704 0.000000 33.147579
RightShoulder -7.807153 3.427217 -31.874548
RightArm 12.099013 14.926991 38.897849
RightForeArm -15.831496 -0.000000 1.104746
RightHand 0.430003 -0.000000 1.716571
RightHandThumb1 -24.326973 -0.000000 -32.862282
LeftUpLeg -6.556166 -6.239570 2.230678
LeftLeg -1.081632 -0.000000 0.000000
LeftFoot -7.503562 8.412927 -16.931989
LeftToeBase -5.138659 -0.000000 0.000000
RightUpLeg -5.670087 7.204711 4.131115
RightLeg -2.505133 -0.000000 0.000000
RightFoot -5.517656 -15.337745 6.568851
RightToeBase -3.206904 -0.000000 0.000000
790
root 1.692575 32.984204 13.792440 10.476307 0.453275 -2.780176
Spine -12.767493 -6.234115 1.664923
Head 8.263753 -2.884912 -1.038781
LeftShoulder -23.346095 41.355269 19.115401
LeftArm 58.517232 -59.447306 -60.815614
LeftForeArm 11.468380 -0.000000 -2.222709
LeftHand 1.959143 -0.000000 4.805635
LeftHandThumb1 -26.253704 0.000000 33.147579
RightShoulder -7.799831 3.422910 -31.886968
RightArm 12.140894 14.900711 38.973261
RightForeArm -15.868045 -0.000000 1.133086
RightHand 0.695055 -0.000000 1.642803
RightHandThumb1 -24.326973 -0.000000 -32.862282
LeftUpLeg -6.558685 -6.223571 2.161131
LeftLeg -1.049597 -0.000000 0.000000
LeftFoot -7.566189 8.498982 -16.801773
LeftToeBase -4.904766 -0.000000 0.000000
RightUpLeg -5.619807 7.262795 4.042270
RightLeg -2.592231 -0.000000 0.000000
RightFoot -5.512902 -15.247211 6.615772
RightToeBase -3.283371 -0.000000 0.000000
791
root 1.671435 32.983255 13.803763 10.485115 0.382445 -2.680383
Spine -12.808804 -6.255643 1.557964
Head 8.306131 -2.805831 -1.075759
LeftShoulder -23.432565 41.416796 19.012721
LeftArm 58.575814 -59.462713 -60.833682
LeftForeArm 11.456451 -0.000000 -2.160979
LeftHand 1.992562 -0.000000 4.734210
LeftHandThumb1 -26.253704 0.000000 33.147579
RightShoulder -7.788414 3.413702 -31.879849
RightArm 12.200558 14.864885 39.005204
RightForeArm -15.808484 -0.000000 1.193910
RightHand 0.607449 0.000000 1.517986
RightHandThumb1 -24.326973 -0.000000 -32.862282
LeftUpLeg -6.572285 -6.211112 2.086912
LeftLeg -0.999296 -0.000000 0.000000
LeftFoot -7.518830 8.526646 -16.920519
LeftToeBase -5.282156 -0.000000 0.000000
RightUpLeg -5.564638 7.306570 3.951455
RightLeg -2.675340 -0.000000 0.000000
RightFoot -5.527082 -15.146313 6.689675
RightToeBase -3.291090 -0.000000 0.000000
792
root 1.649621 32.983466 13.813749 10.482353 0.328375 -2.578408
Spine -12.827089 -6.310644 1.451817
Head 8.319571 -2.734768 -1.103289
LeftShoulder -23.501691 41.391442 18.953474
LeftArm 58.502646 -59.438783 -60.762569
LeftForeArm 11.428826 -0.000000 -2.102050
LeftHand 1.977910 -0.000000 4.737204
LeftHandThumb1 -26.253704 0.000000 33.147579
RightShoulder -7.756155 3.426295 -31.854709
RightArm 12.235112 14.911309 39.029879
RightForeArm -15.848240 -0.000000 1.287645
RightHand 0.484841 0.000000 1.512998
RightHandThumb1 -24.326973 -0.000000 -32.862282
LeftUpLeg -6.586337 -6.319854 2.031378
LeftLeg -0.927417 -0.000000 0.000000
LeftFoot -7.585529 8.696275 -16.795597
LeftToeBase -5.114688 -0.000000 0.000000
RightUpLeg -5.513098 7.323983 3.859426
RightLeg -2.730315 -0.000000 0.000000
RightFoot -5.563596 -14.999638 6.835393
RightToeBase -3.279870 -0.000000 0.000000
793
root 1.630036 32.983124 13.825324 10.457174 0.268570 -2.477824
Spine -12.821127 -6.314871 1.335673
Head 8.343974 -2.668916 -1.117295
LeftShoulder -23.536613 41.370635 18.938078
LeftArm 58.559127 -59.415585 -60.840184
LeftForeArm 11.439630 -0.000000 -2.048188
LeftHand 1.932119 0.000000 4.715264
LeftHandThumb1 -26.253704 0.000000 33.147579
RightShoulder -7.776773 3.470268 -31.863227
RightArm 12.248682 14.911249 39.077694
RightForeArm -15.902625 -0.000000 1.324508
RightHand 0.621796 -0.000000 1.382595
RightHandThumb1 -24.326973 -0.000000 -32.862282
LeftUpLeg -6.570880 -6.421147 1.972066
LeftLeg -0.868290 -0.000000 0.000000
LeftFoot -7.608890 8.807190 -16.828644
LeftToeBase -5.185073 -0.000000 0.000000
RightUpLeg -5.426791 7.352542 3.766094
RightLeg -2.808750 -0.000000 0.000000
RightFoot -5.551125 -14.873663 6.927146
RightToeBase -3.414983 -0.000000 0.000000
